<?xml version="1.0" encoding="UTF-8"?>
<svg version="1.1" xmlns="http://www.w3.org/2000/svg" width="460" height="460">
<path d="M0 0 C151.8 0 303.6 0 460 0 C460 151.8 460 303.6 460 460 C308.2 460 156.4 460 0 460 C0 308.2 0 156.4 0 0 Z " fill="#FEFEFE" transform="translate(0,0)"/>
<path d="M0 0 C1.45713052 -0.01145822 2.91422113 -0.03181144 4.37109375 -0.06152344 C14.66431265 -0.27058802 23.30438879 0.90099293 33.1418457 4.29516602 C33.93437744 4.5172876 34.72690918 4.73940918 35.54345703 4.96826172 C39.65928469 6.17868269 43.11901179 7.85706459 45.98901367 11.04321289 C51.47984525 21.76905585 47.79688645 40.91493011 46.1418457 52.29516602 C44.1618457 51.80016602 44.1618457 51.80016602 42.1418457 51.29516602 C41.87758789 50.14145508 41.61333008 48.98774414 41.34106445 47.79907227 C38.75397527 37.49833069 34.68318094 26.96253625 26.1418457 20.29516602 C25.61461914 19.81821289 25.08739258 19.34125977 24.54418945 18.84985352 C21.58811731 16.20375313 18.86512769 14.60334617 15.1418457 13.29516602 C14.1518457 12.63516602 13.1618457 11.97516602 12.1418457 11.29516602 C6.48257815 9.81111718 0.70202877 10.07215874 -5.1081543 10.04516602 C-6.20256836 10.02454102 -7.29698242 10.00391602 -8.42456055 9.98266602 C-20.40768148 9.92526184 -28.23557398 12.84304857 -36.8581543 21.29516602 C-42.70487341 28.37277336 -44.99674207 33.06651396 -45.0456543 42.23266602 C-45.06692383 44.04057617 -45.06692383 44.04057617 -45.08862305 45.88500977 C-44.53272038 54.11048481 -39.29609165 60.16137477 -33.38549805 65.54907227 C-29.07345923 69.08065157 -24.93805655 71.96687748 -19.8581543 74.29516602 C-18.4153323 75.18240233 -16.97859247 76.07955372 -15.5456543 76.98266602 C-10.96431511 79.78275835 -6.23673401 82.0165339 -1.3581543 84.23266602 C4.47362201 86.89331895 9.60566589 89.78365615 14.7512207 93.64282227 C17.46178776 95.51630244 20.23908531 96.92346344 23.2043457 98.35766602 C31.13920894 102.19809918 37.85049185 106.79166251 44.3684082 112.71704102 C46.22153337 114.42260761 46.22153337 114.42260761 48.7668457 116.17016602 C54.9569885 121.70871483 60.70644888 130.96155494 61.3918457 139.35766602 C61.3093457 139.99704102 61.2268457 140.63641602 61.1418457 141.29516602 C62.1318457 141.29516602 63.1218457 141.29516602 64.1418457 141.29516602 C64.4821582 139.93391602 64.4821582 139.93391602 64.8293457 138.54516602 C66.96688611 131.09388081 70.22168189 123.98378436 73.7668457 117.10766602 C75.65800304 113.41317598 77.03548717 109.79794436 78.26293945 105.84204102 C79.60657028 101.94849746 81.30274026 98.21373512 82.95239258 94.44189453 C84.30541404 91.32247501 85.56478462 88.22800115 86.5793457 84.98266602 C88.2318786 79.71830973 90.41103161 74.66932768 92.54199219 69.58496094 C94.5192693 64.85845231 96.36830791 60.1021023 98.1418457 55.29516602 C98.8018457 55.29516602 99.4618457 55.29516602 100.1418457 55.29516602 C100.28879883 54.77051758 100.43575195 54.24586914 100.5871582 53.70532227 C102.25639963 47.939724 104.15165465 42.26869493 106.1418457 36.60766602 C106.3907959 35.89553955 106.63974609 35.18341309 106.89624023 34.44970703 C108.08037212 31.10862502 109.31937333 27.823163 110.7434082 24.57641602 C111.89921292 21.864472 112.77170937 19.32289348 113.5168457 16.48266602 C115.1418457 11.29516602 115.1418457 11.29516602 120.1418457 1.29516602 C140.6018457 1.29516602 161.0618457 1.29516602 182.1418457 1.29516602 C182.1418457 3.60516602 182.1418457 5.91516602 182.1418457 8.29516602 C175.79370133 10.41689481 169.9107877 10.66216699 163.25708008 10.77368164 C157.60900818 10.96028192 153.31301347 11.96987581 148.1418457 14.29516602 C143.65019642 19.56797169 144.99588092 30.40447122 145.0090332 36.98266602 C145.00757797 38.06572525 145.00612274 39.14878448 145.00462341 40.2646637 C145.00233464 43.94153034 145.00879519 47.61830807 145.0168457 51.29516602 C145.01967056 53.21823074 145.01967056 53.21823074 145.02255249 55.18014526 C145.03835374 65.25439307 145.08146381 75.32846838 145.12870026 85.40261078 C145.14264877 88.47187487 145.15537943 91.5411424 145.16790771 94.6104126 C145.22119674 107.46016912 145.28878882 120.30972342 145.38077545 133.15926552 C145.42332152 139.10616521 145.46128924 145.05300491 145.48773193 151 C145.51346715 156.67789055 145.55376646 162.35549973 145.60490608 168.03321648 C145.62160003 170.15354979 145.63320412 172.27392983 145.63949394 174.39431953 C145.64906766 177.31803087 145.6769856 180.24101705 145.70947266 183.16455078 C145.70803694 184.02177231 145.70660122 184.87899384 145.70512199 185.76219177 C145.77866621 190.40883091 146.09779352 193.54086047 149.1418457 197.29516602 C159.17456457 202.93857038 170.91418562 203.4931903 182.1418457 204.29516602 C182.4718457 206.60516602 182.8018457 208.91516602 183.1418457 211.29516602 C151.4618457 211.29516602 119.7818457 211.29516602 87.1418457 211.29516602 C87.1418457 208.98516602 87.1418457 206.67516602 87.1418457 204.29516602 C91.25724447 203.24760997 95.35263631 202.25152333 99.5168457 201.42016602 C103.89979657 200.47661409 107.87389397 198.88471963 111.9777832 197.09985352 C114.1418457 196.29516602 114.1418457 196.29516602 117.1418457 196.29516602 C117.79390429 158.59318049 118.25006009 120.89530219 118.26522827 83.18719482 C118.26684005 80.55439885 118.27039402 77.92161167 118.27441406 75.28881836 C118.28028592 71.11702071 118.28048389 66.94525964 118.27616501 62.77346039 C118.27517966 61.24477915 118.27572908 59.71609594 118.27800369 58.18741608 C118.28864253 49.51084624 118.04045067 40.93176534 117.1418457 32.29516602 C116.85051758 33.0827832 116.55918945 33.87040039 116.2590332 34.68188477 C114.05346969 40.54258025 111.75186735 46.25550818 109.0793457 51.92016602 C107.25397663 55.79328416 105.60474257 59.62457506 104.2043457 63.67016602 C102.41542591 68.78454667 100.17707248 73.63870787 97.85571289 78.52587891 C93.65459323 87.38529889 89.86385012 96.40966109 86.2746582 105.53344727 C84.78138801 109.17393701 83.1758029 112.76150142 81.5793457 116.35766602 C79.39515351 121.28693361 77.40531099 126.167808 75.8059082 131.32250977 C75.10877419 133.39340786 74.2534077 135.31556978 73.3293457 137.29516602 C71.91188124 140.3481664 70.73312043 143.42177216 69.6574707 146.60766602 C69.39683838 147.37723633 69.13620605 148.14680664 68.86767578 148.93969727 C68.34675432 150.49616994 67.8359667 152.05607508 67.3359375 153.61938477 C66.69133946 155.54260463 65.9249523 157.42406331 65.1418457 159.29516602 C64.1518457 159.62516602 63.1618457 159.95516602 62.1418457 160.29516602 C61.9562207 161.99672852 61.9562207 161.99672852 61.7668457 163.73266602 C60.38471981 174.8094178 60.38471981 174.8094178 58.1418457 179.29516602 C57.4818457 179.29516602 56.8218457 179.29516602 56.1418457 179.29516602 C55.9355957 180.09954102 55.7293457 180.90391602 55.5168457 181.73266602 C52.86757676 188.59668099 48.60388059 194.37933461 43.1418457 199.29516602 C41.8734082 200.50172852 41.8734082 200.50172852 40.5793457 201.73266602 C36.76484499 204.88811687 32.29216787 206.84488664 27.84887695 208.96313477 C25.02104452 210.28155679 25.02104452 210.28155679 22.1418457 212.29516602 C11.09555075 215.19584532 0.1884354 215.8265505 -11.1706543 215.73266602 C-11.931745 215.73028931 -12.69283569 215.7279126 -13.47698975 215.72546387 C-28.53794979 215.65201696 -43.33462688 214.61210611 -56.8581543 207.29516602 C-57.58389648 206.95356445 -58.30963867 206.61196289 -59.05737305 206.26000977 C-66.04979962 202.95837926 -66.04979962 202.95837926 -67.8581543 200.29516602 C-68.1045127 197.44151455 -68.18549712 194.82743172 -68.1081543 191.98266602 C-68.10299805 191.2356543 -68.0978418 190.48864258 -68.0925293 189.71899414 C-68.04827395 186.56856644 -67.90958726 183.59141986 -67.36987305 180.48266602 C-66.41442645 174.53118185 -66.49279863 168.46000645 -66.34057617 162.44165039 C-66.30641602 161.44069336 -66.27225586 160.43973633 -66.23706055 159.40844727 C-66.21200439 158.49877197 -66.18694824 157.58909668 -66.16113281 156.65185547 C-65.8581543 154.29516602 -65.8581543 154.29516602 -63.8581543 151.29516602 C-62.2081543 151.62516602 -60.5581543 151.95516602 -58.8581543 152.29516602 C-58.68799805 153.10598633 -58.5178418 153.91680664 -58.3425293 154.75219727 C-54.33412457 173.06719546 -47.1016686 187.58990644 -31.3581543 198.60766602 C-19.42836718 206.13796046 -4.29169251 206.97441004 9.44262695 204.76391602 C14.913472 203.37161244 19.4394216 201.40054042 24.1418457 198.29516602 C24.77606445 197.93293945 25.4102832 197.57071289 26.0637207 197.19750977 C33.58900668 192.42857854 38.36779943 183.61730483 41.1418457 175.29516602 C42.08384635 161.67547123 42.08384635 161.67547123 37.1418457 149.29516602 C36.63266602 148.52817383 36.12348633 147.76118164 35.59887695 146.97094727 C31.78400189 141.68948408 27.54622456 137.88124919 22.1418457 134.29516602 C21.18536133 133.65321289 20.22887695 133.01125977 19.2434082 132.34985352 C9.61762808 125.97307726 -0.24593028 120.40148041 -10.52246094 115.15234375 C-15.17648039 112.76293546 -19.50638594 110.20901382 -23.8581543 107.29516602 C-25.52060634 106.61805789 -27.18707789 105.95070081 -28.8581543 105.29516602 C-40.63358532 97.9497203 -50.20913357 88.88459136 -57.8581543 77.29516602 C-57.8581543 76.63516602 -57.8581543 75.97516602 -57.8581543 75.29516602 C-58.5181543 75.29516602 -59.1781543 75.29516602 -59.8581543 75.29516602 C-63.84351229 68.1908322 -64.02335374 61.29705694 -63.9831543 53.35766602 C-63.98702148 52.59776367 -63.99088867 51.83786133 -63.99487305 51.05493164 C-63.97120365 37.19649736 -63.97120365 37.19649736 -60.1081543 31.23266602 C-59.56416992 30.38961914 -59.02018555 29.54657227 -58.4597168 28.67797852 C-57.66694336 27.49848633 -57.66694336 27.49848633 -56.8581543 26.29516602 C-56.45338867 25.65321289 -56.04862305 25.01125977 -55.6315918 24.34985352 C-50.0021939 15.81001862 -41.89689079 10.74966533 -32.9206543 6.23266602 C-31.92163086 5.72606445 -30.92260742 5.21946289 -29.89331055 4.69750977 C-20.19441325 0.21629467 -10.50392442 0.05721982 0 0 Z " fill="#070707" transform="translate(76.858154296875,118.704833984375)"/>
<path d="M0 0 C33 0 66 0 100 0 C100 2.31 100 4.62 100 7 C98.07683226 8.92316774 94.55622252 8.19976753 92.0078125 8.24609375 C90.56640026 8.279036 89.12499416 8.31224758 87.68359375 8.34570312 C85.40352669 8.39311241 83.12348385 8.43752612 80.84326172 8.47680664 C78.64784308 8.51652873 76.45294467 8.56807768 74.2578125 8.62109375 C72.9392627 8.6461499 71.62071289 8.67120605 70.26220703 8.69702148 C66.85598351 8.75268287 66.85598351 8.75268287 64 11 C62.82070777 14.53787668 62.84681826 17.74034783 62.84178162 21.42204285 C62.83684364 22.18414686 62.83190566 22.94625087 62.82681805 23.73144895 C62.81142432 26.29256204 62.80307735 28.85365003 62.79467773 31.41479492 C62.78510068 33.2477287 62.77509071 35.08066025 62.76467896 36.91358948 C62.73760507 41.89670982 62.71660895 46.87983966 62.69667697 51.862993 C62.67483274 57.06804755 62.64743641 62.27307275 62.62062073 67.47810364 C62.57067269 77.33779298 62.52574169 87.19749859 62.48259836 97.0572198 C62.43324402 108.28079533 62.37831921 119.50434141 62.32291877 130.72788846 C62.20906632 153.81856485 62.10223438 176.90926946 62 200 C68.01108161 199.86483961 74.02215389 199.72927309 80.03321838 199.59335327 C82.07205466 199.54730638 84.11089331 199.50136458 86.1497345 199.45553589 C120.18930795 201.00815596 120.18930795 201.00815596 151 190 C151.72703125 189.50757813 152.4540625 189.01515625 153.203125 188.5078125 C159.59143972 183.96645952 163.67279897 178.46793051 168 172 C168.55816406 171.22269531 169.11632812 170.44539062 169.69140625 169.64453125 C173.3969235 164.39737023 175.85427293 159.04590157 178 153 C179.98 153 181.96 153 184 153 C183.39014323 159.72898144 182.12774188 166.06121071 180.5625 172.625 C177.87056422 184.34527426 176.7155551 196.0131952 176 208 C171.32267637 208.02492221 166.64539233 208.04296415 161.96801758 208.05493164 C160.38044561 208.05992654 158.79287817 208.06672475 157.20532227 208.07543945 C154.9090055 208.08771922 152.61275013 208.09327686 150.31640625 208.09765625 C149.27052086 208.10539818 149.27052086 208.10539818 148.20350647 208.11329651 C144.72317545 208.11368307 141.35379887 207.95169452 137.90139771 207.50099182 C132.73665919 206.91007329 127.62865787 206.85942137 122.43481445 206.87060547 C120.91111237 206.86797699 120.91111237 206.86797699 119.35662842 206.86529541 C116.02549491 206.86092242 112.69441522 206.86379812 109.36328125 206.8671875 C107.03639211 206.86651331 104.70950304 206.86554232 102.38261414 206.86428833 C97.51833421 206.86281766 92.6540727 206.86494621 87.78979492 206.86962891 C81.55897467 206.87533535 75.32819742 206.87203739 69.09737873 206.86605644 C64.29755835 206.86244194 59.49774816 206.86359336 54.69792747 206.86618423 C52.40023989 206.86685054 50.10255138 206.86603543 47.80486488 206.86370468 C44.59555231 206.86116255 41.38630935 206.86504042 38.17700195 206.87060547 C37.23088547 206.86858124 36.28476898 206.86655701 35.3099823 206.86447144 C30.74769118 206.87911176 26.49529137 207.12423964 22 208 C19.83708832 208.0777124 17.67209527 208.10796236 15.5078125 208.09765625 C14.30898438 208.09443359 13.11015625 208.09121094 11.875 208.08789062 C10.6375 208.07951172 9.4 208.07113281 8.125 208.0625 C6.86429687 208.05798828 5.60359375 208.05347656 4.3046875 208.04882812 C1.20307614 208.0370796 -1.89843725 208.02065167 -5 208 C-4.67 206.35 -4.34 204.7 -4 203 C4.10740904 200.7182741 12.15240521 199.25229875 20.49926758 198.1784668 C26.32878149 197.4049411 26.32878149 197.4049411 31 194 C32.11368508 190.65894475 32.20466193 187.99599759 32.30926514 184.47459412 C32.32953404 183.8181065 32.34980294 183.16161889 32.37068605 182.48523772 C32.43577773 180.30855383 32.49329171 178.13175654 32.54980469 175.95483398 C32.57067186 175.19971114 32.59153903 174.4445883 32.61303854 173.66658294 C33.05895471 157.43753759 33.17999927 141.21188832 33.20018864 124.97746968 C33.20318225 122.67869237 33.20729486 120.37991936 33.21169281 118.08114433 C33.22519609 110.84695634 33.23496239 103.61277887 33.2388947 96.3785792 C33.24342939 88.09341578 33.26129346 79.80841288 33.2898953 71.52329832 C33.31145961 65.04958009 33.32159502 58.5759075 33.32293582 52.10215372 C33.32398129 48.25996888 33.32984276 44.41793872 33.34775543 40.57579231 C33.36415969 36.9925629 33.36642954 33.40960654 33.35761642 29.82635307 C33.35647497 27.88657525 33.37022351 25.94680666 33.3843689 24.00708008 C33.37879974 22.85728165 33.37323059 21.70748322 33.36749268 20.52284241 C33.36895924 19.52261079 33.3704258 18.52237917 33.3719368 17.4918375 C32.93436293 14.56025614 32.31439371 13.77948715 30 12 C26.34596339 9.56397559 23.18456994 9.44338256 18.9375 9.0625 C12.34610224 8.39237806 6.24823425 7.30278903 0 5 C0 3.35 0 1.7 0 0 Z " fill="#080808" transform="translate(269,121)"/>
<path d="M0 0 C0.33 0 0.66 0 1 0 C1 1.65 1 3.3 1 5 C1.66 5 2.32 5 3 5 C3 9.62 3 14.24 3 19 C3.99 18.67 4.98 18.34 6 18 C5.34 19.98 4.68 21.96 4 24 C3.34 24 2.68 24 2 24 C1.67 25.32 1.34 26.64 1 28 C0.67 18.76 0.34 9.52 0 0 Z " fill="#484848" transform="translate(137,255)"/>
<path d="M0 0 C6.6 0 13.2 0 20 0 C20 0.33 20 0.66 20 1 C18.74703125 1.03738281 17.4940625 1.07476562 16.203125 1.11328125 C14.55205379 1.17894885 12.90101345 1.24539593 11.25 1.3125 C10.0125 1.34633789 10.0125 1.34633789 8.75 1.38085938 C2.79314143 1.61548917 2.79314143 1.61548917 -2 5 C-1.34 3.35 -0.68 1.7 0 0 Z " fill="#222222" transform="translate(197,120)"/>
<path d="M0 0 C0.33 0 0.66 0 1 0 C1 1.65 1 3.3 1 5 C1.66 5 2.32 5 3 5 C3 7.97 3 10.94 3 14 C-0.26566506 9.10150241 -0.09311493 5.68001091 0 0 Z " fill="#707070" transform="translate(137,255)"/>
<path d="M0 0 C0 3 0 3 -1.53125 4.82421875 C-2.1809375 5.43910156 -2.830625 6.05398438 -3.5 6.6875 C-4.1496875 7.31011719 -4.799375 7.93273437 -5.46875 8.57421875 C-5.9740625 9.04472656 -6.479375 9.51523437 -7 10 C-7.66 9.67 -8.32 9.34 -9 9 C-6.31941902 5.42589203 -3.57410797 2.68058098 0 0 Z " fill="#C6C6C6" transform="translate(126,311)"/>
<path d="M0 0 C0 3 0 3 -1.53125 4.60546875 C-2.1809375 5.12753906 -2.830625 5.64960938 -3.5 6.1875 C-4.1496875 6.71730469 -4.799375 7.24710938 -5.46875 7.79296875 C-5.9740625 8.19128906 -6.479375 8.58960938 -7 9 C-5.64978174 4.58110387 -3.73884332 2.65654657 0 0 Z " fill="#353535" transform="translate(29,135)"/>
</svg>
